<?xml version="1.0" standalone="no"?><!DOCTYPE svg PUBLIC "-//W3C//DTD SVG 1.1//EN" "http://www.w3.org/Graphics/SVG/1.1/DTD/svg11.dtd"><svg t="1514885119550" class="icon" style="" viewBox="0 0 1024 1024" version="1.1" xmlns="http://www.w3.org/2000/svg" p-id="1137" xmlns:xlink="http://www.w3.org/1999/xlink" width="200" height="200"><defs><style type="text/css"></style></defs><path d="M832 0 192 0C85.76 0 0 85.76 0 192l0 640c0 106.24 85.76 192 192 192l640 0c35.392 0 64-28.608 64-64l0-256L896 64C896 28.608 867.392 0 832 0zM288 192l384 0C689.664 192 704 206.336 704 224l0 64C704 305.664 689.664 320 672 320l-384 0C270.336 320 256 305.664 256 288l0-64C256 206.336 270.336 192 288 192zM288 384l384 0C689.664 384 704 398.336 704 416l0 64C704 497.664 689.664 512 672 512l-384 0C270.336 512 256 497.664 256 480l0-64C256 398.336 270.336 384 288 384zM768 896 192 896c-35.2 0-64-28.8-64-64s28.8-64 64-64l64 0 512 0L768 896z" p-id="1138"></path></svg>