<?xml version="1.0" standalone="no"?><!DOCTYPE svg PUBLIC "-//W3C//DTD SVG 1.1//EN" "http://www.w3.org/Graphics/SVG/1.1/DTD/svg11.dtd"><svg t="1514532291927" class="icon" style="" viewBox="0 0 1024 1024" version="1.1" xmlns="http://www.w3.org/2000/svg" p-id="1845" xmlns:xlink="http://www.w3.org/1999/xlink" width="200" height="200"><defs><style type="text/css"></style></defs><path d="M748.733 498.51c0-7.278-5.889-13.168-13.168-13.168H287.846c-7.277 0-13.168 5.89-13.168 13.168v26.336c0 7.277 5.89 13.167 13.168 13.167h447.718c7.279 0 13.168-5.89 13.168-13.167V498.51zM643.387 63.96H380.024v52.673h263.363V63.96z m184.356 0H722.396v52.673h79.01c58.177 0 79.008 20.832 79.008 79.009v632.074c0 58.188-20.831 79.021-79.008 79.021h-579.4c-58.177 0-79.01-20.832-79.01-79.021V195.642c0-58.177 20.833-79.009 79.01-79.009h79.01V63.96H195.668c-58.177 0-105.344 47.169-105.344 105.345v684.76c0 58.177 47.168 105.345 105.344 105.345h632.074c58.177 0 105.345-47.17 105.345-105.345v-684.76c0-58.176-47.17-105.345-105.345-105.345z m-79.01 250.195c0-7.278-5.889-13.168-13.168-13.168H287.846c-7.277 0-13.168 5.89-13.168 13.168v26.337c0 7.278 5.89 13.168 13.168 13.168h447.718c7.279 0 13.168-5.89 13.168-13.168v-26.337z m-13.169 355.542H287.846c-7.277 0-13.168 5.89-13.168 13.168V709.2c0 7.278 5.89 13.168 13.168 13.168h447.718c7.279 0 13.168-5.89 13.168-13.168v-26.336c0.001-7.28-5.888-13.168-13.168-13.168z" fill="" p-id="1846"></path></svg>